<mxfile host="app.diagrams.net" agent="Mozilla/5.0 (Windows NT 10.0; Win64; x64) AppleWebKit/537.36 (KHTML, like Gecko) Chrome/131.0.0.0 Safari/537.36" version="24.9.3">
  <diagram name="Сторінка-1" id="jXbTUD86LVRf5jN5GR6P">
    <mxGraphModel grid="1" page="1" gridSize="10" guides="1" tooltips="1" connect="1" arrows="1" fold="1" pageScale="1" pageWidth="827" pageHeight="1169" math="0" shadow="0">
      <root>
        <mxCell id="0" />
        <mxCell id="1" parent="0" />
        <mxCell id="UN4iStNIe70_2WzSZmwD-2" style="edgeStyle=orthogonalEdgeStyle;rounded=0;orthogonalLoop=1;jettySize=auto;html=1;" edge="1" parent="1" source="UN4iStNIe70_2WzSZmwD-1" target="UN4iStNIe70_2WzSZmwD-3">
          <mxGeometry relative="1" as="geometry">
            <mxPoint x="414" y="-580" as="targetPoint" />
          </mxGeometry>
        </mxCell>
        <mxCell id="UN4iStNIe70_2WzSZmwD-1" value="Start" style="ellipse;whiteSpace=wrap;html=1;fillColor=#d5e8d4;strokeColor=#82b366;" vertex="1" parent="1">
          <mxGeometry x="354" y="-730" width="120" height="80" as="geometry" />
        </mxCell>
        <mxCell id="UN4iStNIe70_2WzSZmwD-4" style="edgeStyle=orthogonalEdgeStyle;rounded=0;orthogonalLoop=1;jettySize=auto;html=1;" edge="1" parent="1" source="UN4iStNIe70_2WzSZmwD-3" target="UN4iStNIe70_2WzSZmwD-5">
          <mxGeometry relative="1" as="geometry">
            <mxPoint x="414" y="-500" as="targetPoint" />
          </mxGeometry>
        </mxCell>
        <mxCell id="UN4iStNIe70_2WzSZmwD-3" value="int n; string a; bool correct = true;" style="rounded=0;whiteSpace=wrap;html=1;" vertex="1" parent="1">
          <mxGeometry x="354" y="-610" width="120" height="60" as="geometry" />
        </mxCell>
        <mxCell id="UN4iStNIe70_2WzSZmwD-6" style="edgeStyle=orthogonalEdgeStyle;rounded=0;orthogonalLoop=1;jettySize=auto;html=1;" edge="1" parent="1" source="UN4iStNIe70_2WzSZmwD-5" target="UN4iStNIe70_2WzSZmwD-8">
          <mxGeometry relative="1" as="geometry">
            <mxPoint x="414" y="-430" as="targetPoint" />
          </mxGeometry>
        </mxCell>
        <mxCell id="UN4iStNIe70_2WzSZmwD-5" value="cin &gt;&gt; n; cin &gt;&gt; a;" style="shape=parallelogram;perimeter=parallelogramPerimeter;whiteSpace=wrap;html=1;fixedSize=1;" vertex="1" parent="1">
          <mxGeometry x="354" y="-510" width="120" height="60" as="geometry" />
        </mxCell>
        <mxCell id="UN4iStNIe70_2WzSZmwD-9" style="edgeStyle=orthogonalEdgeStyle;rounded=0;orthogonalLoop=1;jettySize=auto;html=1;" edge="1" parent="1" source="UN4iStNIe70_2WzSZmwD-8" target="UN4iStNIe70_2WzSZmwD-10">
          <mxGeometry relative="1" as="geometry">
            <mxPoint x="414" y="-250" as="targetPoint" />
          </mxGeometry>
        </mxCell>
        <mxCell id="UN4iStNIe70_2WzSZmwD-8" value="for (int i = 0; i &lt; n; i++)" style="rhombus;whiteSpace=wrap;html=1;" vertex="1" parent="1">
          <mxGeometry x="336" y="-390" width="156" height="90" as="geometry" />
        </mxCell>
        <mxCell id="UN4iStNIe70_2WzSZmwD-12" value="" style="edgeStyle=orthogonalEdgeStyle;rounded=0;orthogonalLoop=1;jettySize=auto;html=1;" edge="1" parent="1" source="UN4iStNIe70_2WzSZmwD-10" target="UN4iStNIe70_2WzSZmwD-11">
          <mxGeometry relative="1" as="geometry" />
        </mxCell>
        <mxCell id="UN4iStNIe70_2WzSZmwD-10" value="string input;" style="rounded=0;whiteSpace=wrap;html=1;" vertex="1" parent="1">
          <mxGeometry x="354" y="-280" width="120" height="60" as="geometry" />
        </mxCell>
        <mxCell id="UN4iStNIe70_2WzSZmwD-14" style="edgeStyle=orthogonalEdgeStyle;rounded=0;orthogonalLoop=1;jettySize=auto;html=1;entryX=0.5;entryY=0;entryDx=0;entryDy=0;" edge="1" parent="1" source="UN4iStNIe70_2WzSZmwD-11" target="UN4iStNIe70_2WzSZmwD-13">
          <mxGeometry relative="1" as="geometry" />
        </mxCell>
        <mxCell id="UN4iStNIe70_2WzSZmwD-11" value="cin &gt;&gt; input;" style="shape=parallelogram;perimeter=parallelogramPerimeter;whiteSpace=wrap;html=1;fixedSize=1;rounded=0;" vertex="1" parent="1">
          <mxGeometry x="354" y="-190" width="120" height="60" as="geometry" />
        </mxCell>
        <mxCell id="UN4iStNIe70_2WzSZmwD-15" style="edgeStyle=orthogonalEdgeStyle;rounded=0;orthogonalLoop=1;jettySize=auto;html=1;" edge="1" parent="1" source="UN4iStNIe70_2WzSZmwD-13" target="UN4iStNIe70_2WzSZmwD-16">
          <mxGeometry relative="1" as="geometry">
            <mxPoint x="414" y="20" as="targetPoint" />
          </mxGeometry>
        </mxCell>
        <mxCell id="UN4iStNIe70_2WzSZmwD-13" value="if (input != a)" style="rhombus;whiteSpace=wrap;html=1;" vertex="1" parent="1">
          <mxGeometry x="374" y="-100" width="80" height="80" as="geometry" />
        </mxCell>
        <mxCell id="UN4iStNIe70_2WzSZmwD-17" style="edgeStyle=orthogonalEdgeStyle;rounded=0;orthogonalLoop=1;jettySize=auto;html=1;entryX=1;entryY=0.5;entryDx=0;entryDy=0;" edge="1" parent="1" source="UN4iStNIe70_2WzSZmwD-16" target="UN4iStNIe70_2WzSZmwD-8">
          <mxGeometry relative="1" as="geometry">
            <mxPoint x="570" y="-350" as="targetPoint" />
            <Array as="points">
              <mxPoint x="571" y="40" />
              <mxPoint x="571" y="-345" />
            </Array>
          </mxGeometry>
        </mxCell>
        <mxCell id="UN4iStNIe70_2WzSZmwD-18" style="edgeStyle=orthogonalEdgeStyle;rounded=0;orthogonalLoop=1;jettySize=auto;html=1;" edge="1" parent="1" source="UN4iStNIe70_2WzSZmwD-16" target="UN4iStNIe70_2WzSZmwD-19">
          <mxGeometry relative="1" as="geometry">
            <mxPoint x="414" y="140" as="targetPoint" />
          </mxGeometry>
        </mxCell>
        <mxCell id="UN4iStNIe70_2WzSZmwD-16" value="correct = false" style="rounded=0;whiteSpace=wrap;html=1;" vertex="1" parent="1">
          <mxGeometry x="354" y="10" width="120" height="60" as="geometry" />
        </mxCell>
        <mxCell id="UN4iStNIe70_2WzSZmwD-20" style="edgeStyle=orthogonalEdgeStyle;rounded=0;orthogonalLoop=1;jettySize=auto;html=1;" edge="1" parent="1" source="UN4iStNIe70_2WzSZmwD-19" target="UN4iStNIe70_2WzSZmwD-21">
          <mxGeometry relative="1" as="geometry">
            <mxPoint x="414" y="240" as="targetPoint" />
          </mxGeometry>
        </mxCell>
        <mxCell id="UN4iStNIe70_2WzSZmwD-19" value="if (correct)" style="rhombus;whiteSpace=wrap;html=1;" vertex="1" parent="1">
          <mxGeometry x="374" y="110" width="80" height="80" as="geometry" />
        </mxCell>
        <mxCell id="UN4iStNIe70_2WzSZmwD-22" style="edgeStyle=orthogonalEdgeStyle;rounded=0;orthogonalLoop=1;jettySize=auto;html=1;" edge="1" parent="1" source="UN4iStNIe70_2WzSZmwD-21" target="UN4iStNIe70_2WzSZmwD-23">
          <mxGeometry relative="1" as="geometry">
            <mxPoint x="414" y="330" as="targetPoint" />
          </mxGeometry>
        </mxCell>
        <mxCell id="UN4iStNIe70_2WzSZmwD-21" value="cout &lt;&lt; &quot;YES&quot; &lt;&lt; endl;" style="shape=parallelogram;perimeter=parallelogramPerimeter;whiteSpace=wrap;html=1;fixedSize=1;" vertex="1" parent="1">
          <mxGeometry x="354" y="210" width="120" height="60" as="geometry" />
        </mxCell>
        <mxCell id="UN4iStNIe70_2WzSZmwD-24" style="edgeStyle=orthogonalEdgeStyle;rounded=0;orthogonalLoop=1;jettySize=auto;html=1;" edge="1" parent="1" source="UN4iStNIe70_2WzSZmwD-23" target="UN4iStNIe70_2WzSZmwD-25">
          <mxGeometry relative="1" as="geometry">
            <mxPoint x="414" y="420" as="targetPoint" />
          </mxGeometry>
        </mxCell>
        <mxCell id="UN4iStNIe70_2WzSZmwD-23" value="else" style="rhombus;whiteSpace=wrap;html=1;" vertex="1" parent="1">
          <mxGeometry x="374" y="300" width="80" height="80" as="geometry" />
        </mxCell>
        <mxCell id="UN4iStNIe70_2WzSZmwD-26" style="edgeStyle=orthogonalEdgeStyle;rounded=0;orthogonalLoop=1;jettySize=auto;html=1;" edge="1" parent="1" source="UN4iStNIe70_2WzSZmwD-25" target="UN4iStNIe70_2WzSZmwD-27">
          <mxGeometry relative="1" as="geometry">
            <mxPoint x="414" y="500" as="targetPoint" />
          </mxGeometry>
        </mxCell>
        <mxCell id="UN4iStNIe70_2WzSZmwD-25" value="cout &lt;&lt; &quot;NO&quot; &lt;&lt; endl;" style="shape=parallelogram;perimeter=parallelogramPerimeter;whiteSpace=wrap;html=1;fixedSize=1;" vertex="1" parent="1">
          <mxGeometry x="354" y="400" width="120" height="60" as="geometry" />
        </mxCell>
        <mxCell id="UN4iStNIe70_2WzSZmwD-27" value="End" style="ellipse;whiteSpace=wrap;html=1;fillColor=#f8cecc;strokeColor=#b85450;" vertex="1" parent="1">
          <mxGeometry x="354" y="490" width="120" height="80" as="geometry" />
        </mxCell>
      </root>
    </mxGraphModel>
  </diagram>
</mxfile>
